<svg width="90" height="32" viewBox="0 0 90 32" fill="none" xmlns="http://www.w3.org/2000/svg">
<path d="M8.13696 21.0042L2.63917 28.8985L0.383667 31.9998H13.3528L15.8903 27.7708L8.13696 21.0042V20.8633V21.0042Z" fill="#28C76F"/>
<path d="M29.9871 27.7709L30.2691 32H43.0972L41.5466 21.0044L29.9871 27.7709Z" fill="#28C76F"/>
<path d="M22.7972 0L8.98228 19.7357H20.8237L28.7179 6.62554L29.5638 19.7357H41.4051L38.4448 0H22.7972Z" fill="#28C76F"/>
<path d="M71.5725 0L60.4359 19.4537L60.154 0H39.9954L42.11 15.3656L44.7884 32L50.5681 10.1498H51.5549L52.2597 32H61.9866L74.5328 10.1498H75.5196L69.5989 32H81.5813L84.1187 21.0044L89.6165 0H71.5725Z" fill="#28C76F"/>
</svg>
