<svg width="65" height="64" viewBox="0 0 65 64" fill="none" xmlns="http://www.w3.org/2000/svg">
<path d="M24.6665 20.4445V16C24.6665 11.5805 28.2469 8.00003 32.6665 8.00003C37.0861 8.00003 40.6665 11.5805 40.6665 16V20.4445" stroke="#28C76F" stroke-width="3" stroke-linecap="round" stroke-linejoin="round"/>
<path d="M32.6665 54.2223V45.3334" stroke="#28C76F" stroke-width="3" stroke-linecap="round" stroke-linejoin="round"/>
<path d="M19.0452 45.664C18.0888 43.6836 17.5554 41.4614 17.5554 39.1112V27.5556C17.5554 23.6267 20.7376 20.4445 24.6665 20.4445H40.6665C41.7083 20.4445 42.7003 20.6685 43.5928 21.0738" stroke="#28C76F" stroke-width="3" stroke-linecap="round" stroke-linejoin="round"/>
<path d="M47.7771 29.3334V39.1112C47.7771 47.456 41.0109 54.2223 32.666 54.2223C29.8927 54.2223 27.29 53.4756 25.0571 52.1672" stroke="#28C76F" stroke-width="3" stroke-linecap="round" stroke-linejoin="round"/>
<path d="M17.5553 34.6667H6.88867" stroke="#28C76F" stroke-width="3" stroke-linecap="round" stroke-linejoin="round"/>
<path d="M17.5554 25.7778C12.1545 25.7778 7.77759 21.4009 7.77759 16" stroke="#28C76F" stroke-width="3" stroke-linecap="round" stroke-linejoin="round"/>
<path d="M47.7776 34.6667H58.4443" stroke="#28C76F" stroke-width="3" stroke-linecap="round" stroke-linejoin="round"/>
<path d="M47.7776 43.5556C53.1785 43.5556 57.5554 47.9325 57.5554 53.3334" stroke="#28C76F" stroke-width="3" stroke-linecap="round" stroke-linejoin="round"/>
<path d="M7.77759 56.8889L57.5554 7.11115" stroke="#28C76F" stroke-width="3" stroke-linecap="round" stroke-linejoin="round"/>
</svg>
