<svg width="25" height="24" viewBox="0 0 25 24" fill="none" xmlns="http://www.w3.org/2000/svg">
<path d="M2.66748 11.6667C4.56215 12.488 7.95548 13.6707 12.3341 13.6707C16.7128 13.6707 20.1061 12.488 22.0008 11.6667" stroke="#28C76F" stroke-width="2" stroke-linecap="round" stroke-linejoin="round"/>
<path d="M12.334 12.3334V15.3334" stroke="#28C76F" stroke-width="2" stroke-linecap="round" stroke-linejoin="round"/>
<path d="M8.66748 6.33335V3.00002C8.66748 2.26402 9.26481 1.66669 10.0008 1.66669H14.6675C15.4035 1.66669 16.0008 2.26402 16.0008 3.00002V6.33335" stroke="#28C76F" stroke-width="2" stroke-linecap="round" stroke-linejoin="round"/>
<path d="M19.3341 6.33337H5.33415C3.86139 6.33337 2.66748 7.52728 2.66748 9.00004V17.6667C2.66748 19.1395 3.86139 20.3334 5.33415 20.3334H19.3341C20.8069 20.3334 22.0008 19.1395 22.0008 17.6667V9.00004C22.0008 7.52728 20.8069 6.33337 19.3341 6.33337Z" stroke="#28C76F" stroke-width="2" stroke-linecap="round" stroke-linejoin="round"/>
</svg>
