 <svg  version="1.0" xmlns="http://www.w3.org/2000/svg"  width="204.000000pt" height="192.000000pt" viewBox="0 0 204.000000 192.000000"  preserveAspectRatio="xMidYMid meet">  <g transform="translate(0.000000,192.000000) scale(0.100000,-0.100000)" fill="#86855f" stroke="none"> <path d="M385 1843 c-240 -86 -265 -92 -300 -69 -30 19 -32 46 -7 69 23 21 46 22 62 2 16 -20 8 -51 -13 -47 -9 2 -17 -2 -17 -8 0 -26 44 -5 54 26 8 27 -12 52 -50 60 -66 13 -101 -72 -49 -120 20 -19 25 -33 25 -74 0 -156 52 -401 124 -585 73 -187 150 -322 276 -486 38 -49 70 -92 70 -95 0 -2 -18 0 -41 5 -51 12 -113 -4 -134 -34 -48 -69 14 -177 103 -177 62 0 82 77 27 102 -43 20 -74 -24 -37 -53 15 -13 16 -12 3 4 -17 21 -3 41 25 35 28 -5 31 -54 5 -68 -50 -26 -121 32 -121 101 0 33 4 41 30 54 37 19 60 19 132 -1 48 -14 72 -30 144 -96 48 -43 106 -93 130 -110 37 -27 42 -34 31 -47 -10 -14 -10 -14 4 -4 12 10 23 7 60 -18 86 -58 98 -63 120 -43 14 12 23 14 30 7 7 -7 2 -22 -15 -48 -41 -60 -34 -125 14 -125 42 0 62 61 48 144 -2 14 13 27 60 53 35 20 61 38 58 40 -3 3 -35 -11 -72 -31 -102 -57 -102 -30 1 44 48 35 136 107 196 161 59 55 116 99 126 99 15 0 16 2 3 10 -12 8 -9 16 21 47 68 71 197 259 251 368 45 88 118 282 138 368 28 113 50 268 50 353 0 62 3 75 25 98 50 54 17 135 -49 122 -50 -10 -71 -50 -40 -80 18 -18 44 -21 44 -6 0 6 -8 10 -17 8 -21 -4 -29 27 -13 47 7 8 20 15 30 15 21 0 50 -31 50 -53 0 -21 -38 -47 -68 -47 -12 0 -124 36 -248 80 -134 48 -240 80 -262 79 -28 0 10 -16 158 -68 107 -37 215 -77 240 -89 l45 -20 -309 -1 -309 -1 22 24 c12 13 25 42 28 64 5 34 1 45 -20 66 -35 35 -106 37 -137 4 -36 -39 -9 -108 43 -108 12 0 17 6 15 18 -3 11 -12 16 -26 15 -18 -2 -22 2 -22 25 0 35 16 52 50 52 68 0 97 -78 44 -119 -75 -59 -196 12 -181 106 5 31 4 33 -23 33 -27 0 -28 -2 -23 -33 15 -94 -106 -165 -181 -106 -53 41 -24 119 44 119 34 0 50 -17 50 -53 0 -24 -3 -27 -20 -22 -14 4 -22 1 -26 -10 -9 -22 1 -29 29 -21 33 8 53 56 36 88 -17 32 -28 38 -77 38 -62 0 -97 -36 -89 -92 3 -22 16 -51 28 -64 l22 -24 -308 0 c-170 0 -305 4 -300 8 12 11 108 46 305 114 79 27 146 51 149 54 2 2 -11 4 -30 3 -19 0 -128 -34 -244 -76z m653 -48 c7 -14 19 -28 27 -31 34 -13 11 -24 -51 -24 l-66 0 31 29 c17 16 31 34 31 40 0 20 17 12 28 -14z m-71 -156 c14 -16 35 -29 47 -29 27 0 66 27 66 45 0 12 58 14 355 15 l355 0 0 -25 c0 -19 9 -29 35 -42 41 -19 41 -21 20 -153 -27 -169 -87 -359 -152 -485 -127 -245 -278 -428 -479 -581 -98 -75 -154 -74 -186 5 -10 24 -12 24 -16 6 -8 -37 -43 -65 -80 -65 -27 0 -52 13 -106 54 -264 201 -469 487 -566 791 -36 115 -66 251 -76 345 l-6 65 36 19 c26 14 36 26 36 43 l0 23 346 0 346 -1 25 -30z m143 -1548 c0 -42 -29 -89 -48 -77 -19 12 -14 71 9 100 26 33 39 25 39 -23z"/> <path d="M258 1620 c-9 -17 -29 -35 -43 -40 -24 -9 -25 -13 -20 -57 34 -274 126 -523 278 -748 33 -49 63 -92 66 -95 4 -3 40 -43 81 -89 73 -81 223 -216 267 -239 12 -7 36 -12 53 -12 25 0 33 6 47 35 21 43 10 83 -27 102 -18 9 -20 13 -7 13 21 0 57 -34 57 -55 0 -8 5 -15 10 -15 6 0 10 8 10 18 0 42 71 72 108 46 27 -19 29 -66 4 -85 -14 -11 -15 -11 -4 1 21 24 15 68 -11 76 -46 16 -87 -12 -87 -60 0 -65 54 -96 113 -64 87 45 316 279 407 413 137 203 239 457 269 670 6 44 14 94 17 112 4 27 1 32 -18 35 -12 2 -32 17 -43 35 l-20 32 -329 1 -328 0 -19 -24 c-24 -31 -62 -40 -106 -25 -23 7 -33 16 -29 26 3 8 1 11 -4 8 -6 -3 -10 -1 -10 4 0 8 -105 11 -332 11 l-333 0 -17 -30z m186 -131 c20 -16 26 -29 26 -59 0 -21 -4 -42 -10 -45 -6 -4 -4 -16 6 -31 20 -30 14 -108 -10 -132 -9 -10 -36 -17 -66 -18 l-50 -3 0 155 0 154 39 0 c24 0 48 -8 65 -21z m219 1 c5 -18 0 -20 -39 -20 l-44 0 0 -40 c0 -38 2 -40 30 -40 19 0 33 -7 40 -20 10 -18 8 -20 -30 -20 l-40 0 0 -50 0 -50 39 0 c30 0 40 -4 44 -20 5 -18 0 -20 -54 -20 l-59 0 0 150 0 150 54 0 c45 0 54 -3 59 -20z m118 -80 c13 -55 27 -100 30 -100 4 0 12 21 19 48 32 123 44 152 61 152 15 0 14 -8 -7 -82 -13 -46 -32 -113 -41 -150 -9 -37 -22 -69 -29 -72 -8 -3 -18 18 -28 57 -9 34 -27 103 -41 152 -14 50 -25 91 -25 93 0 1 8 2 19 2 15 0 22 -18 42 -100z m299 81 c0 -16 -8 -20 -42 -23 -42 -3 -43 -4 -40 -37 3 -42 3 -42 41 -43 23 -1 31 -6 31 -20 0 -14 -8 -18 -34 -18 -33 0 -34 -1 -38 -46 -2 -25 -1 -47 1 -50 2 -2 22 -4 43 -4 31 0 38 -3 38 -20 0 -18 -7 -20 -60 -20 l-60 0 0 150 0 150 60 0 c53 0 60 -2 60 -19z m204 -3 c34 -31 41 -88 15 -122 -16 -20 -17 -25 -4 -30 22 -8 22 -126 0 -126 -11 0 -15 11 -15 36 0 51 -15 74 -50 74 -30 0 -30 -1 -30 -55 0 -48 -3 -55 -20 -55 -18 0 -19 8 -18 150 l0 150 49 0 c35 0 54 -6 73 -22z m158 -110 l3 -132 37 1 c27 0 38 -4 41 -18 5 -17 -1 -19 -54 -19 l-59 0 0 150 c0 125 2 150 15 150 12 0 15 -24 17 -132z m149 75 c2 -89 3 -95 20 -106 9 -6 24 -7 33 -4 13 5 16 22 16 87 0 64 3 80 15 80 12 0 15 -17 15 -90 0 -85 -1 -90 -26 -106 -22 -15 -25 -23 -22 -61 3 -36 0 -43 -14 -43 -15 0 -18 9 -18 50 0 28 -4 50 -9 50 -5 0 -17 7 -25 16 -23 22 -23 184 -1 184 11 0 15 -14 16 -57z m-131 -378 c0 -23 -2 -25 -21 -15 -28 16 -66 5 -74 -21 -6 -16 3 -32 38 -68 51 -52 67 -85 60 -123 -8 -42 -35 -60 -84 -56 -38 3 -44 6 -47 28 -3 20 -1 23 9 13 21 -21 67 -16 79 8 16 29 -2 68 -51 114 -71 65 -46 145 46 145 41 0 45 -2 45 -25z m-825 -115 l35 0 0 64 c0 56 2 64 18 60 15 -5 17 -19 14 -149 -2 -114 -6 -144 -18 -149 -11 -4 -14 8 -14 70 l0 75 -32 -3 -33 -3 -6 -70 -5 -70 -4 65 -3 65 -7 -65 c-5 -50 -7 -32 -8 82 -2 109 1 147 11 151 8 3 13 -14 15 -60 l3 -63 34 0z m555 -5 l5 -130 38 -3 c24 -2 37 -8 37 -18 0 -11 -14 -14 -60 -14 l-60 0 0 143 c0 79 3 146 6 150 22 22 29 -7 34 -128z m-340 -20 c0 -122 -2 -145 -15 -145 -12 0 -15 16 -16 83 -1 45 -3 102 -4 127 -2 58 4 80 21 80 11 0 14 -28 14 -145z m142 18 l3 -128 43 -3 c28 -2 42 -8 42 -18 0 -11 -14 -14 -60 -14 l-60 0 0 145 c0 121 2 145 15 145 12 0 15 -23 17 -127z m-78 -473 c-30 -12 -37 -39 -19 -66 9 -13 13 -24 10 -24 -2 0 -12 11 -20 24 -20 31 -3 76 29 75 l21 0 -21 -9z m44 -72 c-6 -18 -28 -21 -28 -4 0 9 7 16 16 16 9 0 14 -5 12 -12z m152 -4 c0 -9 -5 -14 -12 -12 -18 6 -21 28 -4 28 9 0 16 -7 16 -16z"/> <path d="M440 1470 c0 -7 3 -10 7 -7 3 4 3 10 0 14 -4 3 -7 0 -7 -7z"/> <path d="M380 1430 c0 -33 3 -40 19 -40 11 0 23 5 26 10 4 6 10 8 15 5 10 -6 0 36 -13 53 -5 6 -18 12 -28 12 -15 0 -19 -8 -19 -40z"/> <path d="M380 1291 c0 -42 3 -51 18 -51 32 0 43 16 40 56 -3 34 -6 39 -30 42 -27 3 -28 2 -28 -47z"/> <path d="M393 1223 c4 -3 10 -3 14 0 3 4 0 7 -7 7 -7 0 -10 -3 -7 -7z"/> <path d="M633 1223 c4 -3 10 -3 14 0 3 4 0 7 -7 7 -7 0 -10 -3 -7 -7z"/> <path d="M740 1490 c0 -7 3 -10 7 -7 3 4 3 10 0 14 -4 3 -7 0 -7 -7z"/> <path d="M761 1404 c0 -11 3 -14 6 -6 3 7 2 16 -1 19 -3 4 -6 -2 -5 -13z"/> <path d="M1043 1363 c4 -3 10 -3 14 0 3 4 0 7 -7 7 -7 0 -10 -3 -7 -7z"/> <path d="M1013 1223 c4 -3 10 -3 14 0 3 4 0 7 -7 7 -7 0 -10 -3 -7 -7z"/> <path d="M1053 1223 c4 -3 10 -3 14 0 3 4 0 7 -7 7 -7 0 -10 -3 -7 -7z"/> <path d="M1200 1415 c0 -61 14 -70 58 -39 45 32 21 94 -37 94 -19 0 -21 -6 -21 -55z"/> <path d="M1213 1343 c4 -3 10 -3 14 0 3 4 0 7 -7 7 -7 0 -10 -3 -7 -7z"/> <path d="M1570 1490 c0 -7 3 -10 7 -7 3 4 3 10 0 14 -4 3 -7 0 -7 -7z"/> <path d="M1670 1420 c0 -7 3 -10 7 -7 3 4 3 10 0 14 -4 3 -7 0 -7 -7z"/> <path d="M1670 1380 c0 -7 3 -10 7 -7 3 4 3 10 0 14 -4 3 -7 0 -7 -7z"/> <path d="M1575 1340 c3 -5 8 -10 11 -10 3 0 2 5 -1 10 -3 6 -8 10 -11 10 -3 0 -2 -4 1 -10z"/> <path d="M1435 1080 c3 -5 8 -10 11 -10 2 0 4 5 4 10 0 6 -5 10 -11 10 -5 0 -7 -4 -4 -10z"/> <path d="M580 1020 c0 -7 3 -10 7 -7 3 4 3 10 0 14 -4 3 -7 0 -7 -7z"/> <path d="M580 980 c0 -7 3 -10 7 -7 3 4 3 10 0 14 -4 3 -7 0 -7 -7z"/> <path d="M1562 521 c64 -7 81 -18 76 -52 -5 -36 -71 -79 -236 -154 -84 -37 -151 -69 -149 -71 4 -4 249 96 307 125 107 55 134 97 90 141 -16 16 -32 20 -82 19 l-63 -2 57 -6z"/> <path d="M796 180 c-41 -45 -49 -69 -44 -131 3 -39 6 -44 30 -47 l26 -3 -19 38 c-26 49 -19 94 21 145 40 50 32 49 -14 -2z"/> <path d="M1243 146 c-24 -21 -26 -27 -18 -52 8 -23 17 -29 39 -29 18 0 31 6 33 15 4 12 3 12 -5 2 -12 -18 -42 -12 -56 10 -14 23 18 58 55 58 50 0 77 -48 66 -116 -4 -25 -2 -34 6 -31 17 5 21 74 6 109 -12 29 -54 58 -83 58 -8 0 -27 -11 -43 -24z"/> </g> </svg> 