<svg width="132" height="31" viewBox="0 0 132 31" fill="#28C76F" xmlns="http://www.w3.org/2000/svg">
<path d="M16.1743 23.1654C15.0594 24.9494 13.6378 25.8414 11.9374 25.8414C8.62035 25.8414 6.13952 23.2491 6.13952 19.7926C6.13952 16.7822 8.06286 13.7438 11.7144 13.7438C14.5576 13.7438 15.589 15.5557 16.1743 16.5592L16.258 16.7264H22.3904L22.251 16.3083C20.3555 10.6498 15.3939 8.64281 11.7144 8.64281C8.89909 8.64281 6.08377 9.78567 3.99318 11.7926C1.81897 13.8832 0.620361 16.7264 0.620361 19.7647C0.620361 26.7055 6.39039 30.9982 11.7423 30.9982C16.5925 30.9982 20.5228 28.1828 22.2231 23.4999L22.3904 23.0539H16.258L16.1743 23.1654ZM35.1011 8.61494C28.913 8.61494 23.9792 13.6045 23.9792 19.7926C23.9792 25.925 28.913 30.9703 35.0454 30.9703C41.2335 30.9703 46.2231 25.9529 46.2231 19.7926C46.2231 13.5766 41.2335 8.61494 35.1011 8.61494ZM35.1569 25.6463C32.0071 25.6463 29.4984 23.1376 29.4984 19.9877C29.4984 16.8379 32.0071 14.3292 35.1569 14.3292C38.251 14.3292 40.8154 16.8379 40.8154 19.9877C40.8154 23.1376 38.251 25.6463 35.1569 25.6463ZM64.7875 10.8728C63.5332 9.81354 61.4147 8.61494 58.7945 8.61494C52.7457 8.61494 48.0628 13.6045 48.0628 19.7926C48.0628 25.925 53.0523 30.9703 59.1847 30.9703C65.3729 30.9703 70.3624 25.9529 70.3624 19.7926V0.00170898H64.7875V10.8728ZM59.1569 25.6463C56.007 25.6463 53.4983 23.1376 53.4983 19.9877C53.4983 16.8379 56.007 14.3292 59.1569 14.3292C62.3067 14.3292 64.8154 16.8379 64.8154 19.9877C64.8154 23.1376 62.3067 25.6463 59.1569 25.6463ZM87.1429 25.5905C84.3833 26.7612 81.122 25.9808 79.3101 23.6951L94.9756 17.0609L94.3624 15.6114C91.9373 9.86929 86.0279 7.10971 79.8955 9.70204C73.7631 12.2944 71.1429 18.6498 73.568 24.3919C75.9931 30.1341 82.8223 32.5034 88.9826 29.8832C91.8258 28.6846 94.1394 26.5383 95.3937 24.0574L90.8502 21.7438C90.0697 23.7229 88.8432 24.8937 87.1429 25.5905ZM81.7352 14.0226C84.0488 13.047 86.3345 13.716 87.8397 15.1654L78 19.3188C78.1115 17.033 79.4495 14.9982 81.7352 14.0226ZM126.78 21.7717C126.028 23.7229 124.773 24.8658 123.101 25.5905C120.341 26.7612 117.08 25.9808 115.268 23.6951L130.934 17.0609L130.32 15.6114C127.895 9.86929 121.986 7.10971 115.854 9.70204C109.721 12.2944 107.101 18.6498 109.526 24.3919C111.951 30.1341 118.78 32.5034 124.941 29.8832C127.784 28.6846 130.098 26.5383 131.352 24.0574L126.78 21.7717ZM117.665 14.0226C119.979 13.047 122.265 13.716 123.77 15.1654L113.93 19.3188C114.07 17.033 115.408 14.9982 117.665 14.0226ZM97.7073 18.7055V30.6637H103.226V19.3745C103.226 16.0017 105.15 14.3571 107.854 14.3571V9.36755C101.582 9.36755 97.7073 13.6323 97.7073 18.7055Z" fill="#28C76F"/>
</svg>
