<svg width="48" height="48" viewBox="0 0 48 48" fill="none" xmlns="http://www.w3.org/2000/svg">
<path d="M28 14.4C36 16.2 42 23.4 42 32" stroke="#28C76F" stroke-width="3" stroke-miterlimit="10" stroke-linecap="round" stroke-linejoin="round"/>
<path d="M6 32C6 23.4 12 16.3 20 14.4" stroke="#28C76F" stroke-width="3" stroke-miterlimit="10" stroke-linecap="round" stroke-linejoin="round"/>
<path d="M10 12H20" stroke="#28C76F" stroke-width="3" stroke-miterlimit="10" stroke-linecap="round" stroke-linejoin="round"/>
<path d="M28 12H38" stroke="#28C76F" stroke-width="3" stroke-miterlimit="10" stroke-linecap="round" stroke-linejoin="round"/>
<path d="M6 16C8.20914 16 10 14.2091 10 12C10 9.79086 8.20914 8 6 8C3.79086 8 2 9.79086 2 12C2 14.2091 3.79086 16 6 16Z" stroke="#28C76F" stroke-width="3" stroke-miterlimit="10" stroke-linecap="round" stroke-linejoin="round"/>
<path d="M42 16C44.2091 16 46 14.2091 46 12C46 9.79086 44.2091 8 42 8C39.7909 8 38 9.79086 38 12C38 14.2091 39.7909 16 42 16Z" stroke="#28C76F" stroke-width="3" stroke-miterlimit="10" stroke-linecap="round" stroke-linejoin="round"/>
<path d="M28 8H20V16H28V8Z" stroke="#28C76F" stroke-width="3" stroke-miterlimit="10" stroke-linecap="round" stroke-linejoin="round"/>
<path d="M10 32H2V40H10V32Z" stroke="#28C76F" stroke-width="3" stroke-miterlimit="10" stroke-linecap="round" stroke-linejoin="round"/>
<path d="M46 32H38V40H46V32Z" stroke="#28C76F" stroke-width="3" stroke-miterlimit="10" stroke-linecap="round" stroke-linejoin="round"/>
</svg>
