<?xml version="1.0" standalone="no"?>
<!DOCTYPE svg PUBLIC "-//W3C//DTD SVG 20010904//EN"
 "http://www.w3.org/TR/2001/REC-SVG-20010904/DTD/svg10.dtd">
<svg version="1.0" xmlns="http://www.w3.org/2000/svg"
 width="300.000000pt" height="301.000000pt" viewBox="0 0 300.000000 301.000000"
 preserveAspectRatio="xMidYMid meet">
<metadata>
Created by potrace 1.10, written by Peter Selinger 2001-2011
</metadata>
<g transform="translate(0.000000,301.000000) scale(0.100000,-0.100000)"
fill="#33b770" stroke="none">
<path d="M932 2621 c-124 -46 -222 -129 -279 -237 -54 -101 -63 -160 -63 -422
0 -223 1 -237 25 -309 37 -108 95 -184 199 -259 31 -22 31 -54 1 -54 -26 0
-284 -89 -359 -124 -156 -73 -269 -191 -318 -334 -21 -62 -23 -83 -23 -289 0
-208 1 -223 21 -250 11 -15 36 -36 55 -45 32 -17 96 -18 919 -18 823 0 887 1
919 18 71 35 76 51 79 261 4 208 -7 280 -54 374 -60 120 -178 229 -333 307
-62 32 -253 100 -318 114 -18 4 -33 13 -33 19 0 7 23 28 52 47 62 42 140 143
168 219 36 94 42 155 38 380 -4 206 -5 219 -31 284 -55 140 -143 233 -282 299
-67 31 -76 33 -200 36 -109 2 -139 -1 -183 -17z"/>
<path d="M1970 2425 c-75 -21 -154 -63 -191 -101 l-30 -31 -2 -289 c-2 -243
-5 -299 -20 -352 l-18 -63 27 -46 c15 -26 47 -66 71 -90 l45 -43 -32 -17 c-18
-10 -42 -26 -54 -35 -21 -16 -20 -17 48 -48 133 -59 262 -171 327 -284 59
-102 81 -196 87 -361 2 -82 9 -156 14 -162 8 -10 85 -13 323 -13 l313 0 31 25
c47 40 54 79 49 249 -6 168 -24 243 -79 323 -38 55 -124 123 -204 162 -65 31
-274 107 -325 117 -41 9 -47 22 -19 41 91 61 179 193 198 297 14 78 14 330 0
398 -28 130 -109 232 -231 292 -68 34 -85 38 -174 42 -70 3 -115 -1 -154 -11z"/>
</g>
</svg>
