<?xml version="1.0" standalone="no"?>
<!DOCTYPE svg PUBLIC "-//W3C//DTD SVG 20010904//EN"
 "http://www.w3.org/TR/2001/REC-SVG-20010904/DTD/svg10.dtd">
<svg version="1.0" xmlns="http://www.w3.org/2000/svg"
 width="87.000000pt" height="100.000000pt" viewBox="0 0 87.000000 100.000000"
 preserveAspectRatio="xMidYMid meet">
<metadata>
Created by potrace 1.10, written by Peter Selinger 2001-2011
</metadata>
<g transform="translate(0.000000,100.000000) scale(0.050000,-0.050000)"
fill="#33b770" stroke="none">
<path d="M608 1774 c-291 -111 -483 -356 -504 -641 -13 -190 51 -192 86 -3
111 615 877 811 1267 324 l67 -84 -157 -10 c-140 -9 -157 -14 -157 -50 0 -38
13 -40 240 -40 l240 0 0 210 c0 197 -3 210 -40 210 -35 0 -41 -17 -50 -129
-10 -128 -11 -129 -42 -80 -186 285 -619 419 -950 293z"/>
<path d="M1611 1035 c-3 -14 -22 -86 -41 -160 -146 -573 -906 -727 -1250 -252
-82 114 -80 117 90 117 137 0 150 4 150 40 0 38 -13 40 -231 40 l-230 0 5
-225 c5 -195 11 -225 41 -231 30 -6 35 10 35 125 0 145 14 160 67 70 340 -574
1379 -294 1429 386 8 109 -40 176 -65 90z"/>
</g>
</svg>
