<?xml version="1.0" standalone="no"?>
<!DOCTYPE svg PUBLIC "-//W3C//DTD SVG 20010904//EN"
 "http://www.w3.org/TR/2001/REC-SVG-20010904/DTD/svg10.dtd">
<svg version="1.0" xmlns="http://www.w3.org/2000/svg"
 width="87.000000pt" height="100.000000pt" viewBox="0 0 87.000000 100.000000"
 preserveAspectRatio="xMidYMid meet">
<metadata>
Created by potrace 1.10, written by Peter Selinger 2001-2011
</metadata>
<g transform="translate(0.000000,100.000000) scale(0.050000,-0.050000)"
fill="#33b770" stroke="none">
<path d="M454 1891 c-568 -202 -493 -1067 101 -1161 l85 -14 0 -175 c0 -269
15 -271 266 -24 l206 203 282 0 c358 0 331 -36 323 434 -9 496 -70 619 -360
729 -124 47 -777 53 -903 8z m886 -95 c233 -101 279 -206 280 -641 l0 -335
-275 0 -274 0 -166 -165 -165 -164 0 162 0 162 -128 8 c-586 38 -615 892 -34
998 152 28 681 11 762 -25z"/>
<path d="M710 1686 c-153 -40 -297 -256 -263 -393 6 -24 21 -85 33 -136 27
-114 67 -151 210 -199 136 -45 217 -27 139 30 -25 19 -27 34 -10 79 48 128 0
155 -77 43 -53 -79 -79 -85 -139 -35 -70 60 -64 132 13 154 83 25 79 80 -6 83
-109 3 -108 1 -78 103 47 154 71 164 158 67 41 -45 89 -82 105 -82 26 0 25 6
-5 40 -72 79 -59 151 31 180 132 44 31 103 -111 66z"/>
<path d="M953 1667 c-7 -8 -13 -171 -13 -363 l0 -348 65 10 c185 31 275 82
275 157 0 21 18 55 40 77 43 43 54 158 19 193 -20 20 -34 64 -37 121 -6 88
-289 212 -349 153z"/>
</g>
</svg>
