<?xml version="1.0" standalone="no"?>
<!DOCTYPE svg PUBLIC "-//W3C//DTD SVG 20010904//EN"
 "http://www.w3.org/TR/2001/REC-SVG-20010904/DTD/svg10.dtd">
<svg version="1.0" xmlns="http://www.w3.org/2000/svg"
 width="87.000000pt" height="100.000000pt" viewBox="0 0 87.000000 100.000000"
 preserveAspectRatio="xMidYMid meet">
<metadata>
Created by potrace 1.10, written by Peter Selinger 2001-2011
</metadata>
<g transform="translate(0.000000,100.000000) scale(0.100000,-0.100000)"
fill="#33b770" stroke="none">
<path d="M87 913 c-4 -3 -7 -187 -7 -408 0 -298 3 -404 12 -413 17 -17 699
-17 716 0 9 9 12 97 12 336 l0 324 -82 84 -82 84 -281 0 c-155 0 -285 -3 -288
-7z m535 -110 l3 -78 78 -3 77 -3 -2 -295 -3 -295 -325 0 -325 0 -3 376 -2
375 249 0 250 0 3 -77z m81 2 l44 -45 -46 0 -46 0 0 45 c0 25 1 45 2 45 2 0
23 -20 46 -45z"/>
<path d="M235 821 c-3 -2 -5 -26 -5 -53 0 -40 -3 -48 -19 -48 -22 0 -31 -19
-31 -65 0 -46 9 -65 31 -65 18 0 19 -10 19 -180 0 -175 -1 -180 -21 -180 -14
0 -19 -5 -17 -18 3 -15 16 -17 113 -17 91 0 110 3 110 15 0 8 -10 16 -22 18
-23 3 -23 4 -23 183 l0 179 119 0 c71 0 122 4 126 10 11 19 -16 79 -45 100
-25 18 -44 20 -167 20 l-138 0 0 31 0 30 138 -2 c135 -2 173 5 145 28 -13 11
-304 24 -313 14z m95 -166 c0 -24 -3 -25 -55 -25 -52 0 -55 1 -55 25 0 24 3
25 55 25 52 0 55 -1 55 -25z m150 0 c0 -24 -2 -25 -65 -25 -63 0 -65 1 -65 25
0 24 2 25 65 25 63 0 65 -1 65 -25z m80 0 l23 -25 -36 0 c-33 0 -37 3 -37 25
0 14 6 25 13 25 8 0 24 -11 37 -25z m-220 -69 c0 -6 -71 -78 -74 -75 -2 2 -1
21 2 42 4 35 6 37 38 37 19 0 34 -2 34 -4z m0 -123 c0 -36 -3 -64 -6 -60 -4 3
-17 21 -29 39 l-22 33 21 27 c11 15 24 27 29 27 4 1 7 -29 7 -66z m-42 -124
c-12 -16 -24 -29 -27 -29 -5 0 -6 116 -2 140 1 3 12 -14 26 -38 l25 -43 -22
-30z m39 -51 c-2 -52 -3 -53 -35 -56 -28 -3 -32 0 -32 19 0 18 53 89 67 89 1
0 2 -24 0 -52z"/>
<path d="M482 562 c-27 -54 -53 -134 -48 -147 8 -21 124 -22 132 0 8 19 -45
152 -62 159 -8 3 -18 -2 -22 -12z m32 -76 c3 -13 9 -31 12 -40 5 -13 -1 -16
-26 -16 -25 0 -31 3 -26 16 3 9 9 27 12 40 8 31 20 31 28 0z"/>
</g>
</svg>
