<?xml version="1.0" standalone="no"?>
<!DOCTYPE svg PUBLIC "-//W3C//DTD SVG 20010904//EN"
 "http://www.w3.org/TR/2001/REC-SVG-20010904/DTD/svg10.dtd">
<svg version="1.0" xmlns="http://www.w3.org/2000/svg"
 width="105.000000pt" height="96.000000pt" viewBox="0 0 105.000000 96.000000"
 preserveAspectRatio="xMidYMid meet">
<metadata>
Created by potrace 1.10, written by Peter Selinger 2001-2011
</metadata>
<g transform="translate(0.000000,96.000000) scale(0.050000,-0.050000)"
fill="#33b770" stroke="none">
<path d="M109 1671 l-49 -49 0 -601 c0 -572 2 -603 39 -640 62 -62 79 -63 998
-57 l867 6 38 47 c36 44 38 87 38 652 l0 604 -46 44 c-46 43 -50 43 -941 43
l-895 0 -49 -49z m1847 -156 l6 -95 -911 0 -911 0 0 68 c0 143 -72 133 917
127 l893 -5 6 -95z m-1 -662 c4 -262 -1 -386 -17 -405 -31 -38 -1736 -42
-1774 -4 -26 26 -36 758 -10 783 7 7 414 11 905 8 l891 -5 5 -377z"/>
<path d="M1401 1092 c-11 -28 -38 -52 -64 -55 -160 -23 -111 -237 53 -237 112
0 159 -30 146 -94 -9 -49 -158 -61 -202 -17 -39 39 -94 40 -94 2 0 -32 93
-111 131 -111 15 0 29 -20 33 -43 9 -64 56 -71 56 -9 0 34 11 52 31 52 45 0
129 91 129 140 0 75 -87 140 -188 140 -99 0 -154 50 -107 97 34 34 167 28 204
-9 18 -18 46 -27 62 -20 46 17 0 90 -73 116 -37 12 -58 34 -58 58 0 54 -37 47
-59 -10z"/>
<path d="M380 950 c-35 -42 2 -50 233 -50 188 0 227 5 227 30 0 19 -20 31 -55
32 -30 1 -129 4 -220 7 -110 4 -171 -2 -185 -19z"/>
<path d="M382 733 c-42 -51 21 -68 238 -65 196 2 210 5 210 42 0 51 -407 72
-448 23z"/>
</g>
</svg>
