<?xml version="1.0" standalone="no"?>
<!DOCTYPE svg PUBLIC "-//W3C//DTD SVG 20010904//EN"
 "http://www.w3.org/TR/2001/REC-SVG-20010904/DTD/svg10.dtd">
<svg version="1.0" xmlns="http://www.w3.org/2000/svg"
 width="259.000000pt" height="300.000000pt" viewBox="0 0 259.000000 300.000000"
 preserveAspectRatio="xMidYMid meet">
<metadata>
Created by potrace 1.10, written by Peter Selinger 2001-2011
</metadata>
<g transform="translate(0.000000,300.000000) scale(0.100000,-0.100000)"
fill="#33b770" stroke="none">
<path d="M352 2967 l-22 -23 0 -915 0 -916 23 -21 c23 -22 60 -28 92 -16 45
18 45 11 45 909 l0 845 713 -2 712 -3 3 -196 c2 -174 4 -198 20 -212 15 -14
51 -17 223 -19 l204 -3 5 -727 5 -727 44 -38 c74 -63 82 -68 92 -52 5 8 8 371
6 835 l-2 822 -240 241 -240 241 -831 0 -831 0 -21 -23z m1848 -344 l85 -88
-94 -3 c-52 -1 -98 1 -102 5 -6 6 -13 145 -10 186 2 16 39 -14 121 -100z"/>
<path d="M767 2412 c-29 -31 -31 -74 -7 -105 l22 -28 434 3 c487 3 469 0 466
75 -3 75 11 73 -472 73 -400 0 -428 -1 -443 -18z"/>
<path d="M767 2062 c-26 -28 -22 -88 8 -118 l25 -24 629 2 c602 3 630 4 650
22 28 26 29 88 1 116 -20 20 -33 20 -658 20 -606 0 -640 -1 -655 -18z"/>
<path d="M773 1722 c-43 -28 -33 -121 15 -141 20 -9 202 -11 654 -9 599 3 627
4 647 22 28 26 29 88 1 116 -20 20 -33 20 -662 20 -354 0 -648 -4 -655 -8z"/>
<path d="M782 1383 c-7 -3 -19 -18 -28 -35 -12 -23 -13 -36 -4 -63 6 -18 18
-36 27 -39 9 -4 245 -6 526 -6 388 0 513 3 524 12 22 18 34 56 27 84 -14 53
-21 54 -561 53 -274 0 -504 -3 -511 -6z"/>
<path d="M1923 1098 c-16 -7 -23 -20 -23 -38 0 -15 -3 -48 -6 -74 l-7 -46
-843 0 c-534 0 -852 -4 -869 -10 -47 -18 -55 -58 -55 -288 0 -216 7 -264 40
-282 12 -6 334 -10 870 -10 l850 0 9 -22 c5 -13 14 -42 20 -65 11 -39 33 -73
49 -73 9 0 232 169 410 309 128 101 148 125 140 167 -2 10 -51 54 -109 99 -58
44 -141 110 -185 146 -163 135 -246 199 -257 198 -7 0 -22 -5 -34 -11z"/>
<path d="M2433 390 l-62 -50 -3 -82 -3 -83 -130 -5 c-138 -5 -139 -6 -235 -70
-30 -20 -65 -36 -77 -35 -12 1 -47 25 -78 53 l-57 52 -723 0 c-808 0 -735 7
-735 -74 0 -83 -95 -76 1084 -76 719 0 1054 3 1067 11 11 5 24 22 30 36 10 27
1 373 -10 373 -3 -1 -34 -23 -68 -50z"/>
</g>
</svg>
