<?xml version="1.0" standalone="no"?>
<!DOCTYPE svg PUBLIC "-//W3C//DTD SVG 20010904//EN"
 "http://www.w3.org/TR/2001/REC-SVG-20010904/DTD/svg10.dtd">
<svg version="1.0" xmlns="http://www.w3.org/2000/svg"
 width="87.000000pt" height="100.000000pt" viewBox="0 0 87.000000 100.000000"
 preserveAspectRatio="xMidYMid meet">
<metadata>
Created by potrace 1.10, written by Peter Selinger 2001-2011
</metadata>
<g transform="translate(0.000000,100.000000) scale(0.100000,-0.100000)"
fill="#33b770" stroke="none">
<path d="M371 943 c-17 -21 -31 -41 -31 -44 0 -4 -54 -9 -121 -11 -174 -4
-159 36 -159 -428 0 -357 1 -379 19 -401 l19 -24 323 -3 c344 -3 367 0 388 44
15 34 15 733 0 767 -17 38 -50 47 -169 47 l-109 0 -16 29 c-36 71 -97 80 -144
24z m111 -58 c23 -37 32 -45 58 -45 23 0 30 -4 30 -20 0 -19 -7 -20 -135 -20
-128 0 -135 1 -135 20 0 16 7 20 30 20 25 0 35 8 58 45 35 59 58 59 94 0z
m-230 -72 c-2 -12 2 -31 8 -43 10 -19 20 -20 165 -20 84 0 160 3 169 6 11 4
16 19 16 45 l0 39 68 0 c40 0 73 -5 80 -12 15 -15 17 -723 2 -733 -7 -4 -426
-8 -642 -5 -5 0 -8 166 -8 369 0 286 3 371 13 375 6 2 39 4 72 3 56 -2 60 -4
57 -24z"/>
<path d="M325 600 l-49 -50 -26 24 c-27 26 -50 24 -50 -3 0 -18 59 -81 76 -81
5 0 38 29 73 64 55 56 62 67 51 80 -7 9 -15 16 -19 16 -4 0 -29 -22 -56 -50z"/>
<path d="M457 576 c-11 -28 19 -37 114 -34 86 3 94 5 94 23 0 18 -8 20 -101
23 -82 2 -103 0 -107 -12z"/>
<path d="M328 373 l-47 -47 -24 22 c-27 26 -45 28 -54 6 -7 -18 53 -84 77 -84
25 0 134 115 127 134 -10 26 -30 19 -79 -31z"/>
<path d="M462 358 c-24 -30 2 -39 104 -36 91 3 99 5 99 23 0 18 -8 20 -96 23
-70 2 -99 -1 -107 -10z"/>
</g>
</svg>
