<?xml version="1.0" standalone="no"?>
<!DOCTYPE svg PUBLIC "-//W3C//DTD SVG 20010904//EN"
 "http://www.w3.org/TR/2001/REC-SVG-20010904/DTD/svg10.dtd">
<svg version="1.0" xmlns="http://www.w3.org/2000/svg"
 width="300.000000pt" height="304.000000pt" viewBox="0 0 300.000000 304.000000"
 preserveAspectRatio="xMidYMid meet">
<metadata>
Created by potrace 1.10, written by Peter Selinger 2001-2011
</metadata>
<g transform="translate(0.000000,304.000000) scale(0.100000,-0.100000)"
fill="#33b770" stroke="none">
<path d="M357 2906 c-101 -27 -220 -136 -257 -234 -20 -53 -20 -72 -18 -1186
l3 -1132 38 -76 c43 -88 86 -130 185 -179 l67 -34 1090 -3 c747 -2 1110 1
1155 8 36 6 88 22 117 36 68 33 149 114 182 184 l26 55 0 1140 0 1140 -27 57
c-31 67 -92 135 -156 177 -99 63 -56 61 -1262 60 -859 0 -1105 -3 -1143 -13z
m2286 -177 c12 -6 41 -30 64 -52 78 -75 74 -2 71 -1203 -3 -1191 2 -1110 -72
-1171 -21 -17 -54 -35 -75 -42 -28 -8 -342 -11 -1133 -11 l-1094 0 -44 22
c-26 14 -57 41 -75 66 l-30 44 -3 1091 -2 1091 25 53 c27 54 65 89 119 110 43
16 2217 18 2249 2z"/>
<path d="M1361 2354 c-15 -19 -21 -41 -21 -75 0 -58 -33 -102 -104 -137 -60
-30 -102 -22 -182 34 -34 24 -69 44 -79 44 -10 0 -55 -38 -101 -85 -63 -63
-84 -92 -84 -111 0 -15 22 -62 51 -106 l50 -79 -17 -52 c-28 -85 -86 -127
-176 -127 -17 0 -39 -10 -53 -25 -24 -23 -25 -30 -25 -148 0 -117 1 -126 24
-150 19 -20 37 -27 86 -33 68 -8 103 -33 134 -99 22 -45 16 -70 -30 -130 -46
-61 -58 -88 -51 -117 4 -13 44 -61 90 -106 102 -99 117 -102 198 -41 78 59 92
63 148 38 76 -32 109 -73 117 -144 11 -104 13 -105 168 -105 156 0 162 3 172
95 9 79 15 88 79 130 75 48 110 47 182 -5 87 -62 106 -58 209 43 103 101 105
115 39 203 -54 72 -57 101 -12 174 34 58 51 67 124 69 32 1 51 8 75 30 l33 29
3 114 c4 109 3 116 -19 141 -18 21 -42 31 -99 43 -41 8 -82 22 -91 30 -9 8
-29 42 -43 74 -31 69 -29 79 43 189 22 35 41 68 41 72 0 16 -153 168 -180 179
-32 13 -40 11 -144 -54 -33 -20 -66 -36 -74 -36 -16 0 -109 44 -136 65 -14 11
-22 34 -28 81 -4 37 -15 77 -23 90 -15 23 -20 24 -145 24 -127 0 -129 0 -149
-26z m299 -522 c76 -36 146 -106 182 -180 30 -60 33 -75 33 -157 0 -77 -4 -98
-27 -147 -37 -80 -105 -149 -181 -184 -56 -26 -72 -29 -167 -29 -120 0 -156
13 -237 88 -58 53 -87 100 -108 172 -54 184 63 393 255 456 14 5 66 7 115 6
68 -2 101 -8 135 -25z"/>
</g>
</svg>
