<?xml version="1.0" standalone="no"?>
<!DOCTYPE svg PUBLIC "-//W3C//DTD SVG 20010904//EN"
 "http://www.w3.org/TR/2001/REC-SVG-20010904/DTD/svg10.dtd">
<svg version="1.0" xmlns="http://www.w3.org/2000/svg"
 width="300.000000pt" height="283.000000pt" viewBox="0 0 300.000000 283.000000"
 preserveAspectRatio="xMidYMid meet">
<metadata>
Created by potrace 1.10, written by Peter Selinger 2001-2011
</metadata>
<g transform="translate(0.000000,283.000000) scale(0.100000,-0.100000)"
fill="#33b770" stroke="none">
<path d="M574 2791 c-46 -28 -54 -65 -54 -243 0 -216 12 -238 137 -238 49 0
58 4 84 31 l29 31 0 188 c0 184 -1 190 -23 216 -32 37 -125 46 -173 15z"/>
<path d="M1928 2781 l-33 -29 -3 -175 c-3 -145 -1 -180 12 -206 27 -51 56 -64
132 -59 102 6 104 10 104 228 0 104 -5 190 -11 209 -14 40 -54 61 -118 61 -42
0 -56 -5 -83 -29z"/>
<path d="M195 2546 c-48 -29 -79 -69 -95 -122 -8 -28 -10 -309 -8 -1024 l3
-985 22 -47 c30 -66 104 -141 166 -169 l52 -24 643 -3 c427 -2 643 1 640 7 -1
6 -34 49 -73 96 l-70 85 -545 0 -545 0 -42 23 c-23 12 -52 35 -65 52 l-23 30
-3 772 -2 773 1077 -2 1078 -3 0 -163 c0 -188 -2 -183 102 -222 45 -17 58 -18
65 -8 5 7 7 191 6 408 -3 389 -3 396 -26 442 -13 25 -40 59 -60 75 -35 27 -42
28 -142 28 l-105 0 -5 -117 c-5 -109 -7 -119 -35 -159 -16 -23 -48 -51 -69
-62 -82 -43 -219 -30 -283 26 -56 49 -67 80 -73 202 l-5 110 -440 0 -440 0 -6
-110 c-6 -118 -16 -151 -66 -197 -42 -39 -97 -58 -170 -58 -107 0 -167 36
-209 125 -20 42 -24 66 -24 148 l0 97 -92 0 c-80 0 -99 -3 -133 -24z"/>
<path d="M1295 1731 c-41 -17 -59 -50 -63 -116 -8 -117 16 -155 98 -155 41 0
56 5 82 29 27 24 32 36 36 88 5 77 -17 129 -64 149 -37 16 -59 17 -89 5z"/>
<path d="M2060 1556 c-146 -27 -257 -86 -361 -193 -103 -106 -156 -195 -200
-333 -20 -64 -24 -96 -24 -215 0 -119 4 -151 24 -215 63 -200 193 -356 374
-445 121 -60 222 -80 372 -72 132 7 201 24 310 78 339 165 486 542 356 911
-40 111 -86 183 -176 274 -97 98 -209 165 -321 195 -100 26 -255 33 -354 15z
m313 -190 c189 -59 348 -233 387 -422 20 -95 9 -266 -22 -340 -54 -129 -154
-234 -283 -295 -187 -88 -383 -74 -558 40 -159 104 -242 264 -240 466 2 275
162 484 425 555 84 23 209 21 291 -4z"/>
<path d="M2145 1231 c-50 -21 -56 -41 -61 -192 -7 -191 1 -265 31 -295 24 -24
28 -24 217 -24 232 0 238 2 238 84 0 81 -16 91 -149 92 -58 0 -114 1 -123 2
-16 2 -18 16 -18 138 0 74 -5 144 -10 155 -12 22 -61 49 -87 48 -10 0 -27 -4
-38 -8z"/>
<path d="M548 1294 c-55 -29 -66 -191 -17 -239 22 -21 34 -24 153 -28 218 -8
240 6 234 146 -3 83 -5 90 -31 113 -27 23 -34 24 -170 24 -106 -1 -149 -5
-169 -16z"/>
<path d="M1155 1285 c-23 -22 -25 -32 -25 -115 0 -88 1 -93 29 -121 27 -27 35
-29 100 -29 107 0 113 5 167 141 26 64 44 124 41 133 -5 14 -28 16 -147 16
-136 0 -142 -1 -165 -25z"/>
<path d="M537 822 c-55 -60 -48 -230 11 -261 26 -14 297 -15 323 -1 33 18 49
64 49 144 0 66 -3 78 -26 105 l-26 31 -157 0 c-138 0 -160 -2 -174 -18z"/>
</g>
</svg>
