<?xml version="1.0" standalone="no"?>
<!DOCTYPE svg PUBLIC "-//W3C//DTD SVG 20010904//EN"
 "http://www.w3.org/TR/2001/REC-SVG-20010904/DTD/svg10.dtd">
<svg version="1.0" xmlns="http://www.w3.org/2000/svg"
 width="87.000000pt" height="100.000000pt" viewBox="0 0 87.000000 100.000000"
 preserveAspectRatio="xMidYMid meet">
<metadata>
Created by potrace 1.10, written by Peter Selinger 2001-2011
</metadata>
<g transform="translate(0.000000,100.000000) scale(0.050000,-0.050000)"
fill="#33b770" stroke="none">
<path d="M107 1917 c-83 -41 -87 -85 -87 -889 l0 -770 49 -49 49 -49 712 0
712 0 50 50 50 50 -6 615 c-7 724 -29 799 -279 957 -159 100 -1088 163 -1250
85z m1098 -117 c123 -46 255 -170 309 -290 50 -113 67 -1174 19 -1227 -40 -44
-1350 -47 -1403 -3 -37 31 -46 1453 -9 1521 32 60 923 59 1084 -1z"/>
<path d="M680 1470 c-465 -150 -434 -816 43 -931 282 -67 554 133 590 434 40
337 -301 605 -633 497z m388 -262 c60 -23 32 -78 -123 -233 -180 -181 -193
-184 -304 -64 -119 129 -64 217 62 97 l58 -57 134 135 c74 74 136 134 138 134
2 0 18 -5 35 -12z"/>
</g>
</svg>
