<?xml version="1.0" standalone="no"?>
<!DOCTYPE svg PUBLIC "-//W3C//DTD SVG 20010904//EN"
 "http://www.w3.org/TR/2001/REC-SVG-20010904/DTD/svg10.dtd">
<svg version="1.0" xmlns="http://www.w3.org/2000/svg"
 width="257.000000pt" height="300.000000pt" viewBox="0 0 257.000000 300.000000"
 preserveAspectRatio="xMidYMid meet">
<metadata>
Created by potrace 1.10, written by Peter Selinger 2001-2011
</metadata>
<g transform="translate(0.000000,300.000000) scale(0.100000,-0.100000)"
fill="#33b770" stroke="none">
<path d="M75 2907 l-27 -23 1 -1379 1 -1379 22 -23 21 -23 1198 0 1198 0 28
24 28 24 3 1114 c2 612 0 1137 -3 1166 l-7 53 -226 226 c-124 124 -237 229
-250 234 -13 5 -444 9 -992 9 l-969 0 -26 -23z m1875 -329 c0 -164 2 -194 17
-210 15 -16 35 -18 213 -18 l197 0 6 -37 c2 -21 4 -497 3 -1058 l-1 -1020
-1087 -3 -1088 -2 -1 122 c-4 444 -6 2404 -2 2411 2 4 395 7 874 7 l869 0 0
-192z m253 24 c48 -48 87 -93 87 -100 0 -9 -26 -12 -95 -12 l-95 0 0 100 c0
55 3 100 8 100 4 0 47 -39 95 -88z"/>
<path d="M829 2283 l-119 -117 -63 62 c-63 59 -65 60 -103 52 -69 -16 -82 -62
-35 -126 43 -58 152 -161 182 -173 20 -7 32 -6 50 7 43 28 290 276 305 305 18
34 11 60 -23 87 -49 38 -67 29 -194 -97z"/>
<path d="M1200 2110 c-12 -12 -20 -33 -20 -55 0 -22 8 -43 20 -55 19 -19 33
-20 440 -20 407 0 421 1 440 20 12 12 20 33 20 55 0 22 -8 43 -20 55 -19 19
-33 20 -440 20 -407 0 -421 -1 -440 -20z"/>
<path d="M830 1605 l-114 -114 -56 53 c-31 29 -65 56 -77 60 -48 15 -112 -40
-99 -86 3 -13 48 -67 99 -120 132 -137 120 -140 314 55 171 170 180 188 125
240 -48 47 -66 39 -192 -88z"/>
<path d="M1224 1498 c-51 -24 -49 -113 2 -136 17 -9 144 -12 428 -12 373 0
405 1 426 18 31 25 32 85 2 115 -22 22 -23 22 -430 24 -268 1 -414 -2 -428 -9z"/>
<path d="M509 1031 c-24 -19 -24 -20 -24 -238 0 -193 2 -222 18 -246 l17 -27
223 0 224 0 24 26 c23 25 24 32 27 197 4 203 -1 251 -33 283 -24 24 -26 24
-238 24 -197 0 -217 -2 -238 -19z m359 -243 l3 -118 -121 0 -120 0 0 113 c0
63 3 117 7 121 4 3 57 5 117 4 l111 -3 3 -117z"/>
<path d="M1197 837 c-29 -20 -32 -77 -7 -110 l21 -27 429 0 429 0 15 22 c22
31 20 70 -5 102 l-20 26 -423 0 c-323 0 -426 -3 -439 -13z"/>
</g>
</svg>
