<?xml version="1.0" standalone="no"?>
<!DOCTYPE svg PUBLIC "-//W3C//DTD SVG 20010904//EN"
 "http://www.w3.org/TR/2001/REC-SVG-20010904/DTD/svg10.dtd">
<svg version="1.0" xmlns="http://www.w3.org/2000/svg"
 width="300.000000pt" height="300.000000pt" viewBox="0 0 300.000000 300.000000"
 preserveAspectRatio="xMidYMid meet">
<metadata>
Created by potrace 1.10, written by Peter Selinger 2001-2011
</metadata>
<g transform="translate(0.000000,300.000000) scale(0.100000,-0.100000)"
fill="#33b770" stroke="none">
<path d="M630 2857 c-46 -23 -51 -48 -48 -245 l3 -184 28 -24 c22 -19 39 -24
83 -24 48 0 60 4 85 29 l29 29 0 190 0 190 -31 26 c-34 29 -105 35 -149 13z"/>
<path d="M1810 2858 c-46 -25 -51 -49 -48 -246 l3 -184 28 -24 c22 -19 39 -24
83 -24 48 0 60 4 85 29 l29 29 0 186 c0 179 -1 186 -23 212 -19 22 -34 28 -78
31 -33 2 -64 -1 -79 -9z"/>
<path d="M258 2640 c-46 -14 -85 -48 -107 -93 -21 -43 -21 -52 -21 -928 0
-979 -2 -948 64 -1025 18 -22 58 -53 87 -69 l54 -30 539 -3 c340 -2 543 1 549
7 6 6 -3 27 -26 59 -19 27 -43 64 -51 81 l-17 31 -460 0 c-493 0 -508 1 -543
51 -14 21 -16 92 -16 711 l0 688 913 0 913 0 11 58 c21 109 89 215 167 257 25
14 36 26 36 43 0 29 -25 90 -48 116 -28 31 -93 56 -149 56 l-53 0 0 -107 c0
-125 -15 -169 -73 -220 -44 -39 -104 -57 -173 -51 -70 6 -123 36 -161 91 -35
53 -45 106 -39 215 l4 72 -369 0 -369 0 0 -107 c0 -125 -15 -169 -73 -220
-104 -91 -287 -61 -347 57 -17 32 -20 59 -20 155 l0 115 -97 -1 c-54 0 -110
-4 -125 -9z"/>
<path d="M2512 2497 c-12 -13 -22 -35 -22 -50 0 -21 -6 -28 -27 -33 -50 -12
-117 -52 -155 -91 -49 -50 -73 -109 -88 -213 -12 -83 -13 -86 -66 -142 -58
-61 -63 -75 -36 -106 15 -18 49 -25 247 -51 500 -66 488 -66 501 -16 5 19 -3
41 -33 90 l-40 65 10 67 c12 94 4 190 -21 238 -23 46 -97 119 -131 130 -20 6
-22 12 -16 44 13 77 -71 123 -123 68z"/>
<path d="M1214 1906 c-43 -19 -64 -53 -64 -104 0 -79 40 -122 113 -122 42 0
75 24 93 66 18 43 18 68 -1 108 -25 53 -87 76 -141 52z"/>
<path d="M2360 1745 c0 -51 62 -105 120 -105 34 0 79 28 95 59 14 29 14 30
-13 35 -15 3 -54 8 -87 11 -33 4 -72 9 -87 11 -21 4 -28 2 -28 -11z"/>
<path d="M1875 1670 c-127 -25 -240 -86 -335 -180 -325 -322 -240 -863 169
-1069 190 -96 422 -94 614 6 107 56 221 173 275 283 62 125 75 191 70 335 -4
96 -10 135 -30 193 -73 204 -254 368 -464 422 -81 21 -221 25 -299 10z m348
-208 c197 -97 308 -303 278 -510 -37 -249 -245 -432 -491 -432 -132 0 -248 47
-346 142 -269 258 -171 701 184 825 58 21 82 23 179 20 108 -3 115 -5 196 -45z"/>
<path d="M1945 1336 c-32 -32 -38 -71 -33 -231 l3 -137 33 -29 32 -29 145 0
c84 0 154 5 168 11 47 21 61 89 28 130 -18 22 -28 24 -130 27 l-111 4 0 118
c0 116 -1 119 -26 139 -36 28 -79 27 -109 -3z"/>
<path d="M1125 1520 c-16 -17 -18 -36 -16 -118 2 -116 13 -132 93 -132 67 0
83 11 119 83 17 34 40 74 50 89 24 33 24 60 1 81 -15 14 -40 17 -124 17 -93 0
-107 -2 -123 -20z"/>
<path d="M569 1501 c-26 -26 -29 -36 -29 -89 0 -50 4 -66 26 -91 l26 -31 142
0 c162 0 179 6 196 71 15 54 4 116 -26 146 -22 22 -30 23 -164 23 l-142 0 -29
-29z"/>
<path d="M615 1112 c-55 -19 -75 -50 -75 -116 0 -110 32 -129 211 -124 122 3
130 4 154 28 22 22 26 36 27 93 2 61 0 70 -25 95 -27 26 -31 27 -150 29 -67 1
-131 -1 -142 -5z"/>
</g>
</svg>
