<?xml version="1.0" standalone="no"?>
<!DOCTYPE svg PUBLIC "-//W3C//DTD SVG 20010904//EN"
 "http://www.w3.org/TR/2001/REC-SVG-20010904/DTD/svg10.dtd">
<svg version="1.0" xmlns="http://www.w3.org/2000/svg"
 width="246.000000pt" height="300.000000pt" viewBox="0 0 246.000000 300.000000"
 preserveAspectRatio="xMidYMid meet">
<metadata>
Created by potrace 1.10, written by Peter Selinger 2001-2011
</metadata>
<g transform="translate(0.000000,300.000000) scale(0.100000,-0.100000)"
fill="#33b770" stroke="none">
<path d="M75 2915 l-25 -24 0 -1166 0 -1166 25 -24 24 -25 828 0 828 0 243
243 242 242 0 547 c0 484 -2 548 -16 562 -21 22 -60 20 -84 -4 -19 -19 -20
-33 -20 -520 l0 -500 -201 0 c-119 0 -208 -4 -220 -10 -18 -10 -19 -23 -19
-215 l0 -205 -745 0 -745 0 0 1075 0 1075 655 0 655 0 0 -191 0 -192 70 69 70
68 0 172 0 173 -26 20 c-26 21 -33 21 -771 21 l-744 0 -24 -25z m1955 -1963
c0 -4 -52 -59 -115 -122 l-115 -115 0 123 0 122 115 0 c63 0 115 -3 115 -8z"/>
<path d="M2150 2900 c-19 -10 -60 -44 -90 -74 l-55 -56 122 -120 c67 -66 127
-120 133 -120 16 0 107 88 129 124 73 122 -12 267 -156 266 -27 -1 -63 -9 -83
-20z"/>
<path d="M1498 2263 c-235 -236 -428 -433 -428 -439 0 -14 237 -234 253 -234
6 -1 204 194 439 432 l428 433 -122 118 c-67 64 -126 117 -132 117 -6 0 -203
-192 -438 -427z"/>
<path d="M1005 1678 c-29 -64 -85 -218 -85 -232 0 -8 4 -17 9 -21 13 -8 271
96 271 109 0 13 -161 176 -173 176 -4 0 -14 -15 -22 -32z"/>
</g>
</svg>
