<?xml version="1.0" standalone="no"?>
<!DOCTYPE svg PUBLIC "-//W3C//DTD SVG 20010904//EN"
 "http://www.w3.org/TR/2001/REC-SVG-20010904/DTD/svg10.dtd">
<svg version="1.0" xmlns="http://www.w3.org/2000/svg"
 width="300.000000pt" height="274.000000pt" viewBox="0 0 300.000000 274.000000"
 preserveAspectRatio="xMidYMid meet">
<metadata>
Created by potrace 1.10, written by Peter Selinger 2001-2011
</metadata>
<g transform="translate(0.000000,274.000000) scale(0.100000,-0.100000)"
fill="#33b770" stroke="none">
<path d="M206 2571 c-15 -17 -17 -95 -16 -1036 0 -937 1 -1020 16 -1037 16
-17 47 -18 646 -18 345 0 628 2 628 5 0 3 -19 30 -41 60 l-41 55 -544 0 -544
0 0 935 0 935 1033 -2 1032 -3 5 -536 5 -535 58 -64 57 -63 0 637 0 637 -25
24 -24 25 -1114 0 c-1074 0 -1115 -1 -1131 -19z"/>
<path d="M1740 2313 c-51 -10 -50 1 -50 -424 0 -220 3 -399 7 -399 3 0 30 8
60 17 l53 17 0 338 0 338 110 0 110 0 0 -269 c0 -147 3 -295 6 -329 7 -60 7
-60 43 -67 20 -3 44 -8 54 -11 16 -5 17 18 17 379 0 345 -2 386 -17 398 -12
11 -59 14 -192 15 -97 1 -187 -1 -201 -3z"/>
<path d="M1112 1968 c-9 -9 -12 -134 -12 -500 l0 -488 -65 0 -65 0 0 338 c0
289 -2 341 -16 360 -15 21 -20 22 -218 22 -144 0 -205 -3 -214 -12 -9 -9 -12
-113 -12 -404 0 -344 2 -395 16 -408 13 -14 65 -16 410 -16 l395 0 -3 58 -3
57 -58 3 -57 3 2 442 3 442 113 3 112 3 0 -298 0 -298 60 65 60 65 0 271 c0
250 -1 272 -18 287 -16 15 -46 17 -218 17 -142 0 -203 -3 -212 -12z m-262
-683 l0 -305 -115 0 -115 0 2 298 3 297 55 6 c30 3 81 6 113 7 l57 2 0 -305z"/>
<path d="M1832 1425 c-29 -8 -79 -27 -110 -42 -75 -36 -200 -159 -235 -233
-142 -296 -11 -628 295 -751 37 -15 83 -23 153 -27 116 -5 197 11 283 58 l55
30 195 -195 c187 -188 196 -195 234 -195 69 0 122 77 88 130 -5 8 -93 99 -196
201 l-188 188 31 58 c47 87 63 155 63 257 0 187 -71 329 -217 433 -95 68 -176
95 -298 99 -68 3 -117 -1 -153 -11z m260 -115 c332 -102 403 -547 121 -750
-279 -200 -673 2 -673 345 0 285 279 489 552 405z"/>
</g>
</svg>
