<?xml version="1.0" standalone="no"?>
<!DOCTYPE svg PUBLIC "-//W3C//DTD SVG 20010904//EN"
 "http://www.w3.org/TR/2001/REC-SVG-20010904/DTD/svg10.dtd">
<svg version="1.0" xmlns="http://www.w3.org/2000/svg"
 width="87.000000pt" height="100.000000pt" viewBox="0 0 87.000000 100.000000"
 preserveAspectRatio="xMidYMid meet">
<metadata>
Created by potrace 1.10, written by Peter Selinger 2001-2011
</metadata>
<g transform="translate(0.000000,100.000000) scale(0.100000,-0.100000)"
fill="#33b770" stroke="none">
<path d="M594 888 c-12 -19 -14 -251 -2 -265 5 -6 16 -9 24 -6 11 4 14 30 14
119 l0 114 60 0 60 0 0 -305 0 -305 -75 0 -75 0 0 94 c0 92 0 94 25 100 14 4
30 4 34 1 17 -10 32 21 18 38 -25 32 -282 257 -295 257 -7 0 -78 -57 -157
-127 -157 -137 -179 -170 -105 -160 l39 5 3 -126 3 -127 313 -3 312 -2 -2 352
-3 353 -92 3 c-66 2 -94 -1 -99 -10z m-8 -416 c-14 -2 -26 -9 -27 -15 0 -7 0
-58 1 -114 l1 -103 -95 0 -96 0 0 49 0 50 43 3 c34 2 42 7 42 23 0 17 -7 20
-58 20 -34 0 -63 -5 -69 -12 -5 -7 -8 -39 -6 -73 l3 -60 -62 0 -63 0 0 119 c0
112 -1 120 -20 123 -15 2 5 25 92 100 l111 96 114 -101 c103 -92 112 -102 89
-105z"/>
</g>
</svg>
