<?xml version="1.0" standalone="no"?>
<!DOCTYPE svg PUBLIC "-//W3C//DTD SVG 20010904//EN"
 "http://www.w3.org/TR/2001/REC-SVG-20010904/DTD/svg10.dtd">
<svg version="1.0" xmlns="http://www.w3.org/2000/svg"
 width="91.000000pt" height="97.000000pt" viewBox="0 0 91.000000 97.000000"
 preserveAspectRatio="xMidYMid meet">
<metadata>
Created by potrace 1.10, written by Peter Selinger 2001-2011
</metadata>
<g transform="translate(0.000000,97.000000) scale(0.050000,-0.050000)"
fill="#33b770" stroke="none">
<path d="M71 1669 c-58 -59 -46 -1256 13 -1298 64 -44 599 -46 636 -1 36 44 8
49 -310 55 l-280 5 -5 595 -6 595 216 0 215 0 92 -100 92 -100 393 0 393 0 0
-140 0 -140 90 0 90 0 -1 -75 c-1 -41 -21 -201 -45 -355 l-44 -280 -265 -10
c-146 -5 -265 -17 -265 -25 0 -8 0 -24 0 -35 0 -40 529 -25 566 15 22 25 49
157 86 422 59 426 59 429 -65 409 l-67 -11 0 132 c0 175 5 173 -457 173 l-381
0 -84 100 -84 100 -246 0 c-196 0 -251 -6 -277 -31z"/>
<path d="M725 1057 c-79 -100 -139 -190 -133 -199 24 -39 63 -12 148 102 123
163 120 169 120 -270 0 -333 4 -390 30 -390 26 0 30 57 30 390 0 438 -3 432
119 269 85 -114 141 -150 141 -92 0 36 -260 373 -288 373 -12 0 -87 -82 -167
-183z"/>
</g>
</svg>
