<?xml version="1.0" standalone="no"?>
<!DOCTYPE svg PUBLIC "-//W3C//DTD SVG 20010904//EN"
 "http://www.w3.org/TR/2001/REC-SVG-20010904/DTD/svg10.dtd">
<svg version="1.0" xmlns="http://www.w3.org/2000/svg"
 width="87.000000pt" height="100.000000pt" viewBox="0 0 87.000000 100.000000"
 preserveAspectRatio="xMidYMid meet">
<metadata>
Created by potrace 1.10, written by Peter Selinger 2001-2011
</metadata>
<g transform="translate(0.000000,100.000000) scale(0.050000,-0.050000)"
fill="#33b770" stroke="none">
<path d="M144 1916 c-35 -35 -35 -1697 0 -1732 40 -40 634 -33 650 8 21 55
-36 67 -309 68 l-265 0 0 790 0 790 479 0 479 0 6 -165 6 -165 175 -6 174 -6
6 -344 c4 -290 10 -344 35 -344 25 0 31 58 35 379 l6 379 -185 186 -185 186
-542 0 c-394 0 -548 -7 -565 -24z m1221 -228 c115 -124 115 -131 2 -124 l-97
6 -6 105 c-7 128 -6 128 101 13z"/>
<path d="M404 1485 c8 -45 571 -65 598 -22 30 50 -9 57 -305 57 -275 0 -299
-3 -293 -35z"/>
<path d="M407 1188 c-23 -59 41 -68 473 -63 415 5 430 6 430 45 0 56 -882 74
-903 18z"/>
<path d="M990 912 c-342 -153 -234 -672 140 -672 363 0 489 514 162 662 -96
43 -217 47 -302 10z m341 -214 c15 -24 -205 -258 -243 -258 -49 0 -152 141
-126 173 21 24 32 21 77 -22 l53 -51 88 90 c89 91 127 108 151 68z"/>
<path d="M411 881 c-28 -45 18 -61 172 -61 142 0 159 4 153 35 -8 41 -302 64
-325 26z"/>
</g>
</svg>
