<svg width="48" height="48" viewBox="0 0 48 48" fill="none" xmlns="http://www.w3.org/2000/svg">
<path d="M40.2797 14.6694C40.5277 15.2854 40.6663 15.96 40.6663 16.6667V39.3334C40.6663 42.28 38.2797 44.6667 35.333 44.6667H12.6663C9.71967 44.6667 7.33301 42.28 7.33301 39.3334V16.6667C7.33301 13.72 9.71967 11.3334 12.6663 11.3334H19.333" stroke="#28C76F" stroke-width="3" stroke-linecap="round" stroke-linejoin="round"/>
<path d="M10.0312 43.9706L26.2286 27.7706C28.3113 25.688 31.6872 25.688 33.7699 27.7706L40.6659 34.6666" stroke="#28C76F" stroke-width="3" stroke-linecap="round" stroke-linejoin="round"/>
<path d="M20.6479 21.3119L18.1253 20.4719L17.2826 17.9466C17.0106 17.1306 15.6586 17.1306 15.3866 17.9466L14.5439 20.4719L12.0213 21.3119C11.6133 21.4479 11.3359 21.8293 11.3359 22.2613C11.3359 22.6933 11.6133 23.0746 12.0213 23.2106L14.5439 24.0506L15.3866 26.5759C15.5226 26.9839 15.9039 27.2586 16.3333 27.2586C16.7626 27.2586 17.1466 26.9813 17.2799 26.5759L18.1226 24.0506L20.6453 23.2106C21.0533 23.0746 21.3306 22.6933 21.3306 22.2613C21.3306 21.8293 21.0559 21.4479 20.6479 21.3119Z" stroke="#28C76F" stroke-width="3"/>
<path d="M36.4211 9.30667L33.0531 8.184L31.9304 4.816C31.5651 3.728 29.7651 3.728 29.3997 4.816L28.2771 8.184L24.9091 9.30667C24.3651 9.488 23.9971 9.99733 23.9971 10.5707C23.9971 11.144 24.3651 11.6533 24.9091 11.8347L28.2771 12.9573L29.3997 16.3253C29.5811 16.8693 30.0931 17.2373 30.6664 17.2373C31.2397 17.2373 31.7491 16.8693 31.9331 16.3253L33.0557 12.9573L36.4237 11.8347C36.9677 11.6533 37.3357 11.144 37.3357 10.5707C37.3357 9.99733 36.9677 9.488 36.4237 9.30667H36.4211Z" stroke="#28C76F" stroke-width="3"/>
<path d="M31.333 38.6666C32.4376 38.6666 33.333 37.7712 33.333 36.6666C33.333 35.5621 32.4376 34.6666 31.333 34.6666C30.2284 34.6666 29.333 35.5621 29.333 36.6666C29.333 37.7712 30.2284 38.6666 31.333 38.6666Z" stroke="#28C76F" stroke-width="3"/>
</svg>
