<svg width="64" height="64" viewBox="0 0 64 64" fill="none" xmlns="http://www.w3.org/2000/svg">
<path fill-rule="evenodd" clip-rule="evenodd" d="M21.5742 4.00096L54.6068 4.00096C56.3234 4.00096 57.6494 4.83627 58.5224 5.796C59.3536 6.70978 59.9163 7.8919 59.9949 8.90176C60.0633 9.77997 59.4235 10.5487 58.5658 10.6187C57.7083 10.6887 56.9576 10.0336 56.8892 9.15534C56.8787 9.02107 56.7125 8.487 56.2428 7.97062C55.8148 7.50018 55.2677 7.19136 54.6068 7.19136C53.034 7.19136 52.3793 7.76805 52.0516 8.26785C51.6555 8.87214 51.5458 9.67479 51.5785 10.258L51.5811 10.3038V50.9689C51.6518 52.438 51.3925 54.626 50.3033 56.502C49.1386 58.5081 47.0638 60.0628 43.8457 59.9979C42.2687 59.9661 40.9451 59.5369 39.8783 58.7864C38.8186 58.041 38.0999 57.0407 37.6268 56.0005C37.0214 54.6693 36.79 53.2155 36.7597 51.9453H13.4612L13.4544 50.3571C13.4099 39.8859 13.3208 17.5876 13.3208 12.1969C13.3208 8.97108 14.6928 6.82226 16.5001 5.54674C18.2148 4.33659 20.2177 3.97726 21.5742 4.00096ZM49.0735 7.19136L21.5451 7.19136L21.5301 7.19107C20.6595 7.17387 19.3307 7.42375 18.2681 8.17368C17.2914 8.86298 16.4363 10.0365 16.4363 12.1969C16.4363 17.3202 16.517 37.765 16.5632 48.7549H40.1853L39.9406 50.5685C39.7886 51.6947 39.8572 53.3478 40.451 54.6537C40.7374 55.2833 41.1278 55.7947 41.6423 56.1566C42.1494 56.5134 42.8648 56.7871 43.907 56.8081C45.9272 56.8489 46.9927 55.9613 47.6253 54.8716C48.3221 53.6713 48.5233 52.1362 48.4679 51.0971L48.4656 51.0537V10.3921C48.4252 9.55908 48.5289 8.35213 49.0735 7.19136Z" fill="#28C76F"/>
<path fill-rule="evenodd" clip-rule="evenodd" d="M44.4346 59.8321L43.8457 59.9979C42.7841 59.9547 41.677 58.534 40.494 56.6417C39.7649 55.4752 39.1886 54.0665 38.9821 52.5502C38.842 51.5222 38.8718 50.4447 39.1391 49.3597H5.86802C4.7927 49.3597 3.91081 50.2527 4.0072 51.3493C4.31649 54.8683 5.62917 59.9979 10.5427 59.9979H43.8457C43.8834 59.9994 44.3984 59.8337 44.4346 59.8321ZM35.8434 52.5502H7.30843C7.49839 53.5852 7.79566 54.542 8.22263 55.2735C8.74094 56.1616 9.36351 56.6417 10.5427 56.6417H36.9531C36.4052 55.4189 35.9924 54.0335 35.8434 52.5502Z" fill="#28C76F"/>
<path fill-rule="evenodd" clip-rule="evenodd" d="M17.7569 13.5711C17.7569 13.1306 18.1056 12.7734 18.5357 12.7734L44.6041 12.7735C45.0343 12.7735 45.383 13.1306 45.383 13.5711C45.383 14.0116 45.0343 14.3687 44.6041 14.3687L18.5357 14.3687C18.1056 14.3687 17.7569 14.0116 17.7569 13.5711Z" fill="#28C76F"/>
<path fill-rule="evenodd" clip-rule="evenodd" d="M17.7569 18.7554C17.7569 18.315 18.1056 17.9579 18.5357 17.9579H44.6041C45.0343 17.9579 45.383 18.315 45.383 18.7554C45.383 19.196 45.0343 19.553 44.6041 19.553H18.5357C18.1056 19.553 17.7569 19.196 17.7569 18.7554Z" fill="#28C76F"/>
<path fill-rule="evenodd" clip-rule="evenodd" d="M17.7569 23.5413C17.7569 23.1007 18.1056 22.7437 18.5357 22.7437H44.6041C45.0343 22.7437 45.383 23.1007 45.383 23.5413C45.383 23.9817 45.0343 24.3388 44.6041 24.3388H18.5357C18.1056 24.3388 17.7569 23.9817 17.7569 23.5413Z" fill="#28C76F"/>
<path fill-rule="evenodd" clip-rule="evenodd" d="M17.941 28.7256C17.941 28.2851 18.2897 27.928 18.7199 27.928H35.4658C35.896 27.928 36.2447 28.2851 36.2447 28.7256C36.2447 29.1661 35.896 29.5232 35.4658 29.5232H18.7199C18.2897 29.5232 17.941 29.1661 17.941 28.7256Z" fill="#28C76F"/>
<path fill-rule="evenodd" clip-rule="evenodd" d="M17.7569 41.8841C17.7569 41.4436 18.1056 41.0864 18.5357 41.0864H35.9147C36.3448 41.0864 36.6936 41.4436 36.6936 41.8841C36.6936 42.3246 36.3448 42.6817 35.9147 42.6817H18.5357C18.1056 42.6817 17.7569 42.3246 17.7569 41.8841Z" fill="#28C76F"/>
<path d="M41.6963 43.2803V46.6904C41.6963 47.129 42.2869 47.2462 42.447 46.8394L42.8916 45.7095C43.0228 45.376 43.484 45.3765 43.6144 45.7104L44.0608 46.8534C44.2201 47.261 44.8119 47.1443 44.8119 46.7052V43.282C44.8119 43.282 44.2277 43.7881 43.2542 43.7881C42.2805 43.7881 41.6963 43.2803 41.6963 43.2803Z" fill="#28C76F"/>
<path d="M45.9804 40.6895C45.9804 42.2313 44.7599 43.4811 43.2543 43.4811C41.7487 43.4811 40.5282 42.2313 40.5282 40.6895C40.5282 39.1478 41.7487 37.8979 43.2543 37.8979C44.7599 37.8979 45.9804 39.1478 45.9804 40.6895Z" fill="#28C76F"/>
</svg>
