<svg width="25" height="24" viewBox="0 0 25 24" fill="none" xmlns="http://www.w3.org/2000/svg">
<path d="M18.0468 13.8906C22.9202 8.77731 22.3242 2.8173 22.2735 2.3933C21.8482 2.34264 15.8895 1.74664 10.7762 6.61997C7.67883 9.57197 6.63616 12.868 6.3335 13.9706L10.6962 18.3333C11.7988 18.0306 15.0948 16.988 18.0468 13.8906Z" stroke="#28C76F" stroke-width="2" stroke-linecap="round" stroke-linejoin="round"/>
<path d="M15.6668 11.3333C16.9555 11.3333 18.0002 10.2887 18.0002 8.99999C18.0002 7.71133 16.9555 6.66666 15.6668 6.66666C14.3782 6.66666 13.3335 7.71133 13.3335 8.99999C13.3335 10.2887 14.3782 11.3333 15.6668 11.3333Z" fill="#28C76F"/>
<path d="M7.47249 20.2906C7.10582 21.1013 6.28849 21.6666 5.34049 21.6666H3.00049V19.328C3.00049 18.38 3.56449 17.5626 4.37649 17.196" stroke="#28C76F" stroke-width="2" stroke-linecap="round" stroke-linejoin="round"/>
<path d="M17.9635 13.9787L18.2915 15.8147C18.5901 17.4853 17.8968 19.1787 16.5128 20.1587L12.9741 22.6667C12.9741 22.6667 13.8315 20.4253 13.3461 17.3267" stroke="#28C76F" stroke-width="2" stroke-linecap="round" stroke-linejoin="round"/>
<path d="M10.6885 6.70391L8.85649 6.37591C7.18316 6.07591 5.48716 6.77058 4.50449 8.15858L2.00049 11.6932C2.00049 11.6932 4.24182 10.8359 7.34049 11.3212" stroke="#28C76F" stroke-width="2" stroke-linecap="round" stroke-linejoin="round"/>
</svg>
