<svg width="128" height="33" viewBox="0 0 128 33" fill="none" xmlns="http://www.w3.org/2000/svg">
<g clip-path="url(#clip0_22668_1104)">
<path d="M41.2542 25.5795L42.8264 21.9279C44.5254 23.1958 46.7823 23.8551 49.0138 23.8551C50.6621 23.8551 51.7018 23.2211 51.7018 22.2575C51.6764 19.5695 41.8374 21.6743 41.7613 14.929C41.736 11.5056 44.7789 8.86835 49.0899 8.86835C51.651 8.86835 54.2122 9.50231 56.038 10.9477L54.5672 14.6754C52.8936 13.6103 50.8142 12.8496 48.8363 12.8496C47.4923 12.8496 46.6047 13.4836 46.6047 14.295C46.6301 16.9323 56.5452 15.4869 56.6466 21.9279C56.6466 25.4273 53.6797 27.8871 49.4195 27.8871C46.3004 27.8871 43.435 27.1517 41.2542 25.5795ZM101.581 20.6092L105.918 23.0183C104.295 25.9345 101.201 27.8871 97.6256 27.8871C92.3764 27.8871 88.1162 23.6269 88.1162 18.3777C88.1162 13.1285 92.3764 8.86835 97.6256 8.86835C101.176 8.86835 104.295 10.8463 105.918 13.7371L101.581 16.1462C100.795 14.7768 99.3246 13.8386 97.6256 13.8386C95.1151 13.8386 93.0864 15.8672 93.0864 18.3777C93.0864 20.8882 95.1151 22.9168 97.6256 22.9168C99.3246 22.9168 100.795 21.9786 101.581 20.6092ZM58.8274 0.981934H64.2541V27.532H58.8274V0.981934ZM108.048 0.981934H113.474V16.5773L119.611 9.24873H126.255L118.673 18.0734L126.864 27.532H119.915L113.474 19.5695V27.532H108.048V0.981934ZM80.382 20.6599V16.1715C79.5958 14.8529 77.9729 13.8386 76.1471 13.8386C73.6367 13.8386 71.608 15.8672 71.608 18.3777C71.608 20.8882 73.6367 22.9168 76.1471 22.9168C77.9729 22.9168 79.5958 21.9532 80.382 20.6599ZM80.382 9.24873H85.8086V27.5067H80.382V25.3512C79.4944 26.8474 77.2882 27.8871 74.9806 27.8871C70.2133 27.8871 66.4603 23.6269 66.4603 18.3523C66.4603 13.0778 70.2133 8.86835 74.9806 8.86835C77.2882 8.86835 79.4944 9.90804 80.382 11.4042V9.24873Z" fill="#CBCDCC"/>
<path d="M7.70496 20.6344C7.70496 22.4856 6.20882 23.9817 4.35767 23.9817C2.50651 23.9817 1.01038 22.4856 1.01038 20.6344C1.01038 18.7832 2.50651 17.2871 4.35767 17.2871H7.70496V20.6344ZM9.3786 20.6344C9.3786 18.7832 10.8747 17.2871 12.7259 17.2871C14.577 17.2871 16.0732 18.7832 16.0732 20.6344V29.0026C16.0732 30.8538 14.577 32.3499 12.7259 32.3499C10.8747 32.3499 9.3786 30.8538 9.3786 29.0026V20.6344Z" fill="#CBCDCC"/>
<path d="M12.7261 7.19458C10.875 7.19458 9.37881 5.69844 9.37881 3.84729C9.37881 1.99614 10.875 0.5 12.7261 0.5C14.5773 0.5 16.0734 1.99614 16.0734 3.84729V7.19458H12.7261ZM12.7261 8.89359C14.5773 8.89359 16.0734 10.3897 16.0734 12.2409C16.0734 14.092 14.5773 15.5882 12.7261 15.5882H4.33252C2.48137 15.5882 0.985229 14.092 0.985229 12.2409C0.985229 10.3897 2.48137 8.89359 4.33252 8.89359H12.7261Z" fill="#CBCDCC"/>
<path d="M26.1406 12.2409C26.1406 10.3897 27.6367 8.89359 29.4879 8.89359C31.339 8.89359 32.8351 10.3897 32.8351 12.2409C32.8351 14.092 31.339 15.5882 29.4879 15.5882H26.1406V12.2409ZM24.4669 12.2409C24.4669 14.092 22.9708 15.5882 21.1196 15.5882C19.2685 15.5882 17.7723 14.092 17.7723 12.2409V3.84729C17.7723 1.99614 19.2685 0.5 21.1196 0.5C22.9708 0.5 24.4669 1.99614 24.4669 3.84729V12.2409Z" fill="#CBCDCC"/>
<path d="M21.1196 25.6553C22.9708 25.6553 24.4669 27.1515 24.4669 29.0026C24.4669 30.8538 22.9708 32.3499 21.1196 32.3499C19.2685 32.3499 17.7723 30.8538 17.7723 29.0026V25.6553H21.1196ZM21.1196 23.9817C19.2685 23.9817 17.7723 22.4856 17.7723 20.6344C17.7723 18.7832 19.2685 17.2871 21.1196 17.2871H29.5132C31.3644 17.2871 32.8605 18.7832 32.8605 20.6344C32.8605 22.4856 31.3644 23.9817 29.5132 23.9817H21.1196Z" fill="#CBCDCC"/>
</g>
<defs>
<clipPath id="clip0_22668_1104">
<rect width="126.031" height="32" fill="white" transform="translate(0.984741 0.5)"/>
</clipPath>
</defs>
</svg>
