<svg width="78" height="33" viewBox="0 0 78 33" fill="none" xmlns="http://www.w3.org/2000/svg">
<path d="M77.2803 16.9605C77.2803 11.5162 74.6432 7.22032 69.603 7.22032C64.5415 7.22032 61.479 11.5162 61.479 16.918C61.479 23.3193 65.0944 26.5519 70.2835 26.5519C72.8143 26.5519 74.7283 25.9777 76.1744 25.1695V20.9162C74.7283 21.6392 73.0695 22.0858 70.964 22.0858C68.9012 22.0858 67.0722 21.3628 66.8383 18.8533H77.2378C77.2378 18.5768 77.2803 17.4709 77.2803 16.9605ZM66.7745 14.9402C66.7745 12.537 68.2419 11.5375 69.5817 11.5375C70.879 11.5375 72.2613 12.537 72.2613 14.9402H66.7745ZM53.27 7.22032C51.1859 7.22032 49.8461 8.1986 49.1017 8.87914L48.8253 7.56059H44.1466V32.3577L49.4633 31.2306L49.4845 25.2121C50.2501 25.765 51.3773 26.5519 53.2488 26.5519C57.0555 26.5519 60.522 23.4895 60.522 16.7479C60.5008 10.5805 56.9917 7.22032 53.27 7.22032ZM51.994 21.8732C50.7393 21.8732 49.9949 21.4266 49.4845 20.8736L49.4633 12.9836C50.0162 12.3669 50.7818 11.9416 51.994 11.9416C53.9293 11.9416 55.2691 14.1108 55.2691 16.8967C55.2691 19.7465 53.9506 21.8732 51.994 21.8732ZM36.8308 5.96558L42.1687 4.81717V0.5L36.8308 1.62714V5.96558ZM36.8308 7.58186H42.1687V26.1903H36.8308V7.58186ZM31.11 9.1556L30.7697 7.58186H26.1761V26.1903H31.4928V13.5791C32.7475 11.9416 34.8742 12.2393 35.5335 12.4732V7.58186C34.8529 7.32666 32.3647 6.85879 31.11 9.1556ZM20.4766 2.96695L15.2875 4.07283L15.2662 21.1076C15.2662 24.2551 17.6268 26.5731 20.7743 26.5731C22.5182 26.5731 23.7942 26.2541 24.496 25.8713V21.5542C23.8155 21.8306 20.4553 22.8089 20.4553 19.6614V12.1117H24.496V7.58186H20.4553L20.4766 2.96695ZM6.10018 12.9836C6.10018 12.1542 6.78071 11.8352 7.90786 11.8352C9.52414 11.8352 11.5658 12.3244 13.182 13.1963V8.1986C11.4169 7.49679 9.67301 7.22032 7.90786 7.22032C3.59069 7.22032 0.719666 9.47461 0.719666 13.2388C0.719666 19.1085 8.80106 18.1727 8.80106 20.7035C8.80106 21.6818 7.95039 22.0008 6.75945 22.0008C4.9943 22.0008 2.74002 21.2777 0.953601 20.2994V25.3609C2.93142 26.2116 4.9305 26.5731 6.75945 26.5731C11.183 26.5731 14.2241 24.3827 14.2241 20.5759C14.2028 14.2384 6.10018 15.3655 6.10018 12.9836Z" fill="#CBCDCC"/>
</svg>
