<svg width="24" height="24" viewBox="0 0 24 24" fill="none" xmlns="http://www.w3.org/2000/svg">
<path d="M11.9997 9.66671C14.0247 9.66671 15.6663 8.02508 15.6663 6.00004C15.6663 3.975 14.0247 2.33337 11.9997 2.33337C9.97463 2.33337 8.33301 3.975 8.33301 6.00004C8.33301 8.02508 9.97463 9.66671 11.9997 9.66671Z" stroke="#28C76F" stroke-width="2" stroke-linecap="round" stroke-linejoin="round"/>
<path d="M18.3498 20.688C19.4965 20.3267 20.0991 19.06 19.6125 17.9613C18.3191 15.04 15.4005 13 12.0005 13C8.60047 13 5.6818 15.04 4.38847 17.9613C3.9018 19.0613 4.50447 20.3267 5.65114 20.688C7.28447 21.2027 9.4458 21.6667 12.0005 21.6667C14.5551 21.6667 16.7165 21.2027 18.3498 20.688Z" stroke="#28C76F" stroke-width="2" stroke-linecap="round" stroke-linejoin="round"/>
</svg>
