<svg width="65" height="64" viewBox="0 0 65 64" fill="none" xmlns="http://www.w3.org/2000/svg">
<path d="M56.5529 29.4862L51.3333 24.2666V16.8888C51.3333 14.9262 49.7405 13.3333 47.7778 13.3333H40.4L35.1805 8.11373C33.7902 6.72706 31.5396 6.72706 30.1529 8.11373L24.9333 13.3333H17.5556C15.5929 13.3333 14 14.9262 14 16.8888V24.2666L8.78046 29.4862C7.39024 30.8728 7.39024 33.1271 8.78046 34.5137L14 39.7333V47.1111C14 49.0737 15.5929 50.6666 17.5556 50.6666H24.9333L30.1529 55.8862C31.5431 57.2728 33.7938 57.2728 35.1805 55.8862L40.4 50.6666H47.7778C49.7405 50.6666 51.3333 49.0737 51.3333 47.1111V39.7333L56.5529 34.5137C57.9431 33.1271 57.9431 30.8728 56.5529 29.4862Z" stroke="#28C76F" stroke-width="4" stroke-linecap="round" stroke-linejoin="round"/>
<path d="M22.4444 33.696L28.9404 40.8889L42.8888 23.1111" stroke="#28C76F" stroke-width="4" stroke-linecap="round" stroke-linejoin="round"/>
</svg>
